# xmcd
#
# Track frame offsets:
#	150
#	15892
#	28425
#	42175
#	61157
#	75845
#	90257
#	104022
#	118810
#	132345
#	144815
#	159747
#
# Disc length: 2381 seconds
#
# Revision: 1
# Processed by: cddbd v1.5.2PL0 Copyright (c) Steve Scherf et al.
# Submitted via: audiograbber 1.83.01
#
DISCID=8e094b0c
DTITLE=Lee Wiley with Billy Butterfield - a touch of the blues
DYEAR=1957
DGENRE=Blues
TTITLE0=The Memphis Blues
TTITLE1=From the Land of the Sky Blue Water
TTITLE2=The Ace in the Hole
TTITLE3=Someday You'll Be Sorry
TTITLE4=My Melancholy Baby
TTITLE5=A Hundred Years from Today
TTITLE6=Blues in My Heart
TTITLE7=Maybe You'll Be There
TTITLE8=Between the Devil and the Deep Blue Sea
TTITLE9=I Don't Want to Walk without You, Baby
TTITLE10=Make Believe
TTITLE11=A Touch of the Blues
EXTD=
EXTT0=
EXTT1=
EXTT2=
EXTT3=
EXTT4=
EXTT5=
EXTT6=
EXTT7=
EXTT8=
EXTT9=
EXTT10=
EXTT11=
PLAYORDER=
